<?xml version="1.0" encoding="utf-8"?>
<!-- Generator: Adobe Illustrator 18.0.0, SVG Export Plug-In . SVG Version: 6.00 Build 0)  -->
<!DOCTYPE svg PUBLIC "-//W3C//DTD SVG 1.1//EN" "http://www.w3.org/Graphics/SVG/1.1/DTD/svg11.dtd">
<svg version="1.1" id="Capa_1" xmlns="http://www.w3.org/2000/svg" xmlns:xlink="http://www.w3.org/1999/xlink" x="0px" y="0px"
	 viewBox="0 0 626 601.5" enable-background="new 0 0 626 601.5" xml:space="preserve">
<path fill="#7EA000" d="M273,514.4c-8,9.3-14.9,16.9-21.3,25c-3.8,4.9-6.3,5.4-11.1,0.7c-19.4-19-19.6-18.8-1.6-39.5
	c7.7-8.8,15.4-17.6,23.4-26.1c7.7-8.1,12.4-17.6,12.5-28.6c0.4-29.8,0.1-59.7,0.1-88.7c-4.4-2.5-5.6,0.5-7.1,1.9
	c-13.5,12.2-27,24.4-40.2,36.9c-13.8,13.1-17.4,30.2-15.7,48.2c2,21.6,0.2,43.2,0.9,64.8c0.2,6.6-1.6,8.9-8.6,9
	c-28,0.4-28,0.6-28-27.4c0-10.8,0-21.7,0-33.2c-14.2,13.6-27.7,26-40.5,39.1c-13.6,13.9-13.3,14.2-26.9,1.1
	c-12.7-12.2-12.4-12,0-23.9c12-11.5,23.5-23.6,36.2-36.4c-14.5-3.2-28.2-3.1-41.6-3c-9.4,0-12.2-3.1-11.8-12.5
	c0.7-19.3,0.2-19.4,19.6-19.4c18.9,0,37.8-0.1,56.6,0.1c8,0.1,14.3-2.3,19.9-8.6c19.5-22.1,39.6-43.8,59.3-65.7
	c1.4-1.6,4.5-2.8,3-5.7c-1.1-2.1-3.7-1.3-5.6-1.3c-27.8-0.1-55.6,0-83.4,0c-7,0-12.4,3-17.3,7.9c-18.5,18.4-37.3,36.5-55.4,55.3
	c-5.4,5.5-9.2,6.4-15.1,1.3c-4.9-4.2-10.5-7.5-16.5-11.6c16.9-16.9,33.1-33.1,49.6-49.6c-2.9-3.6-6.9-2.1-10.3-2.1
	c-20.6-0.2-41.2-0.3-61.8,0c-6.3,0.1-8.1-1.7-8.2-8.1c-0.2-23.7-0.5-23.7,23.3-23.7c14.7,0,29.4,0,44.1,0c0.5-0.8,1-1.6,1.5-2.3
	c-7.7-6.7-15.2-13.8-23.3-20.1c-5.4-4.2-6.8-7.5-1.3-12.8c6.3-6.1,9.8-18.4,17.3-18.6c6.4-0.1,13.1,9.9,19.4,15.6
	c34.9,31.7,34.8,31.7,81.6,31.7c20.2,0,40.3,0,60.4,0c1.1-3.2-1-4.4-2.3-5.8c-17.7-17.8-35.5-35.4-53.1-53.2
	c-6.4-6.5-13.7-9.3-23-9.1c-26.1,0.4-52.2-0.1-78.3,0.3c-6.8,0.1-8.6-1.9-8.5-8.6C83.8,185,83.5,185,106,185c12.9,0,25.8,0,40.5,0
	c-17.6-17.8-33.6-34.5-50.4-50.4c-5.6-5.3-6.3-7.7,0.1-12.9c17.4-14.2,16.9-14.3,32.6,1.3c12.2,12,24.9,23.4,37.8,35.4
	c2.1-1.4,0.5-5.2,0.6-8.3c0.2-15.8,0.2-31.6,0.1-47.4c-0.1-10.7,7.9-5.8,12.6-6.5c4.5-0.7,9.5-1.5,9.3,6.5
	c-0.5,20.9,0,41.9-0.3,62.8c-0.1,8.2,2.7,14.6,8.4,20.2c22.9,22.3,45.6,44.7,68.5,66.9c2,1.9,3.8,6,7.3,4.1c2.6-1.4,1.4-5,1.4-7.6
	c0.1-27.1,0-54.2,0.1-81.4c0-8-2.5-14.5-8.3-20.2c-18.3-18.1-36.2-36.7-54.5-54.7c-4.7-4.6-4.3-6.8,0.6-11
	c17.3-14.7,17.2-14.9,33.1,1.1c8.9,9,17.8,18.1,26.7,27.1c0.1,0.1,0.6-0.1,2.5-0.3c0-12.6,0-25.4,0-38.2c0-11.3,0.2-22.7-0.1-34
	c-0.1-5.1,1.3-7.4,6.9-7.2c12,0.4,24.1,0.6,36-0.1c7.5-0.4,8.2,3,8.1,9c-0.2,39.8-0.1,79.6-0.1,119.5c0,2.4,0.1,4.8,0,7.2
	c0,2.7,1,4.6,3.7,5.4c2.6,0.8,5,0.1,6.4-1.9c1.7-2.5,3-5.3,4.2-8.2c14.9-35.4,29.9-70.7,44.3-106.2c3-7.5,6-8.6,13.4-5.4
	c18.2,7.9,18.3,7.5,10.7,26.4c-13,32.1-25.6,64.3-39.1,96.2c-3.2,7.6-1.6,11.2,5,15.4c14.3,9.1,14,9.5,25.8-3.1
	c23.4-25.1,47-50,70.3-75.2c3.7-4,6.1-4.6,10.9-1.1c18.4,13.3,18.6,13.1,2.4,29.2c-24.3,24.2-48.6,48.5-73.2,72.5
	c-4.2,4.1-4.7,6.8-1.6,12c11.4,19.1,11.2,19.2,31.5,10.3c31.4-13.8,62.8-27.4,94-41.5c6.2-2.8,9.6-3.3,13.6,3.8
	c10.8,18.9,11.2,18.7-9.1,27.5c-33.6,14.6-67,29.8-100.9,43.7c-12.1,5-5,12.7-5.2,19.4c-0.2,7.7,5.4,7,10.7,7
	c39.5-0.1,79,0.2,118.4-0.3c8-0.1,9.8,2.4,9.5,9.9c-0.7,18.5,1.6,15.3-15.2,15.4c-37.1,0.2-74.2,0.2-111.2-0.1
	c-7.5-0.1-10.6,1.5-11.5,9.7c-2.1,19.3-2.8,19.3,15.1,26.8c30.6,12.8,61.2,25.8,92,38.4c7.8,3.2,10.9,5.5,5.4,14.3
	c-10.5,16.4-9.8,16.8-27.9,8.4c-28.6-13.3-57.2-26.5-85.6-40.2c-6.4-3.1-9.2-2.5-12.4,4.1c-8.2,16.6-8.6,16.5,4.8,28.9
	c24.1,22.5,48.1,45.1,72.4,67.2c5.6,5.1,6.3,7.9-0.1,13.2c-18.5,15.2-18.3,15.5-34.9-1.2c-20.6-20.7-41.3-41.3-61.5-62.2
	c-4.7-4.8-7.6-5.6-13.3-1.2c-20.2,15.3-20.4,15.1-9.8,38.2c11.7,25.5,23.2,51.2,35.2,76.6c2.9,6,3,9-3.9,12.3
	c-20.9,10.1-20.7,10.4-30.8-10.9c-12.9-27.2-25.9-54.4-39-81.6c-2-4.1-3.5-10.2-9.8-8.5c-5.3,1.5-3,7-3,10.8c-0.2,35-0.5,70,0.2,105
	c0.2,9.9-3,12.2-12.1,11.5c-10.6-0.7-21.3-0.6-31.9,0c-6.6,0.3-8.1-2.2-8-8.3c0.3-16.1,0.1-32.3,0-48.4
	C274.3,518.7,273.8,517.5,273,514.4z M326,307.8c0,32.2,0.3,64.4-0.2,96.6c-0.2,9,3.5,10.5,10.9,9.1c14.9-2.9,27.7-9.8,38.6-20.2
	c41.2-38.9,47-105.5,13.7-155.5c-12.8-19.1-30.3-31.2-52.9-36.1c-7.3-1.6-10.3-0.2-10.2,8.3C326.3,242.7,326,275.2,326,307.8z"/>
</svg>
