<?xml version="1.0" encoding="utf-8"?>
<!-- Generator: Adobe Illustrator 18.0.0, SVG Export Plug-In . SVG Version: 6.00 Build 0)  -->
<!DOCTYPE svg PUBLIC "-//W3C//DTD SVG 1.1//EN" "http://www.w3.org/Graphics/SVG/1.1/DTD/svg11.dtd">
<svg version="1.1" id="Capa_1" xmlns="http://www.w3.org/2000/svg" xmlns:xlink="http://www.w3.org/1999/xlink" x="0px" y="0px"
	 viewBox="0 0 626 601.5" enable-background="new 0 0 626 601.5" xml:space="preserve">
<path fill="#7EA000" d="M54.8,102.9c31.9-3,59.1,5.1,85.2,16.5c58.9,25.7,110.6,62.7,159.2,104.3c6.7,5.8,10,5.1,15.7-1
	c37.1-39.9,78.6-74.5,127.8-98.6c35.3-17.3,72.2-28,112.2-22c1.1,0.2,2.2,0.4,5.2,0.9c-22.6,13.6-42.6,27.8-61.1,44
	c-58.7,51.4-100.4,114.9-131.4,185.9c-30.7,70.3-49.8,143.7-58.4,219.9c-0.3,2.2-0.6,4.4-1,6.7c-0.2,1.2-0.7,2.4-1.7,5.4
	c-7.8-39.4-17.5-76.6-28.5-113.3c-23.8-79.3-54.1-155.8-99.3-225.7C147,176.5,109.4,132.9,54.8,102.9z"/>
<path fill="#7EA000" d="M307.2,36.7c34.6-0.3,63.7,28.6,63.8,63.4c0.1,34.6-29.1,63.8-63.6,63.6c-34.3-0.2-62.7-28.4-63.3-63
	C243.5,66.3,272.4,37,307.2,36.7z"/>
</svg>
