<?xml version="1.0" encoding="utf-8"?>
<!-- Generator: Adobe Illustrator 18.0.0, SVG Export Plug-In . SVG Version: 6.00 Build 0)  -->
<!DOCTYPE svg PUBLIC "-//W3C//DTD SVG 1.1//EN" "http://www.w3.org/Graphics/SVG/1.1/DTD/svg11.dtd">
<svg version="1.1" id="Capa_1" xmlns="http://www.w3.org/2000/svg" xmlns:xlink="http://www.w3.org/1999/xlink" x="0px" y="0px"
	 viewBox="0 0 626 601.5" enable-background="new 0 0 626 601.5" xml:space="preserve">
<path fill="#7EA000" d="M267.6,583.3c-6.3,0-12.5,0-18.8,0c-0.3-61.2-1-122.5-0.7-183.7c0.1-12.6-3.4-22.5-10.8-32.5
	c-38.7-52.1-76.5-104.9-115.3-156.9c-23.8-32-44.9-66-72.6-95.1c-12.7-13.3-10.4-29.8,4-42.9c17.1-15.5,38.2-23.6,60-29.2
	C222.2,15.4,332.2,14,442.7,28.9c38.8,5.2,77.7,12.1,112.7,31.8c16.6,9.3,30.1,20.4,28.2,42c-4.5,13.8-17.5,20.9-25.5,31.9
	c-56.9,78.2-114,156.3-171.3,234.2c-6.6,9-11.4,18-9.2,29.1c10.4,53.5-10.8,92.6-52.2,125.5C303.9,540.5,283.4,560.1,267.6,583.3z
	 M335.8,150.1c38.8-1.6,77.5-3.6,115.8-9.9c33.2-5.5,66.5-11.4,96.2-28.4c18.6-10.7,18.5-20.1,0.4-31.1
	c-15.6-9.4-32.7-15.3-50.4-19.3C385.4,35.6,272.2,36.9,159,54.6c-29.4,4.6-59,11.2-84.7,27.9c-14.1,9.2-14.2,17.7-0.3,27.1
	c14,9.5,29.9,15.4,46.3,19.5C191.2,146.8,263.2,151.7,335.8,150.1z"/>
</svg>
