<?xml version="1.0" encoding="utf-8"?>
<!-- Generator: Adobe Illustrator 18.0.0, SVG Export Plug-In . SVG Version: 6.00 Build 0)  -->
<!DOCTYPE svg PUBLIC "-//W3C//DTD SVG 1.1//EN" "http://www.w3.org/Graphics/SVG/1.1/DTD/svg11.dtd">
<svg version="1.1" id="Capa_1" xmlns="http://www.w3.org/2000/svg" xmlns:xlink="http://www.w3.org/1999/xlink" x="0px" y="0px"
	 viewBox="0 0 626 601.5" enable-background="new 0 0 626 601.5" xml:space="preserve">
<path fill="#7EA000" d="M606.9,261.9c-1.5,4.4-1,9-1.4,13.5c-2.1,24.7-8.3,48.3-17.4,71.1c-14.2,35.7-35,67-63.3,93
	c-12.9,11.9-27.1,21.9-42.6,30.2c-18.7,10-38.4,17.2-59.1,21.2c-9.9,1.9-19.9,3-29.9,3.8c-10.1,0.8-20.2,0.5-30.3-0.3
	c-18-1.6-35.5-5.8-52.1-13.2c-20.2-9-37.4-22-52-38.4c-12.4-13.9-23-29.2-29-47c-3.9-11.5-5.4-23.2-0.9-35
	c5-13.2,15.5-17.6,28.4-12.1c9.8,4.2,16.8,11.3,23.1,19.6c18.4,24.4,43,39.5,72.8,45.6c27.9,5.6,55,1.6,81-9.7
	c32-13.9,55.3-37.4,73.3-66.8c14.2-23.3,25-47.9,30-74.9c5.5-30,4.3-59.7-3.8-89.2c-10.7-38.6-30.4-72.5-54.9-103.7
	c-15.4-19.7-32.8-37.6-50.5-55.2c-1.5-1.5-3.3-2.7-3.7-4.9c0.5,0,1.1,0,1.6,0c0.3,0.7,1,0.7,1.6,0.9c15.7,4.6,30.4,11.2,44.7,19.1
	c31.1,17.1,58.3,38.8,80.8,66.4c30.9,38,48.1,81.4,52.2,130.2c0.2,3-0.2,6.3,1.4,9.1C606.9,244.1,606.9,253,606.9,261.9z"/>
<path fill="#7EA000" d="M528.5,527.6c-5.3,5.7-10.3,9.6-15.5,13.4c-38.7,28-81.6,45.8-129.2,51.4c-55,6.5-106-6-153-34.7
	C169,520.1,128.6,466,112.1,395.7c-16.5-70.2,0-133.5,47.1-188c27.8-32.2,64.3-47.9,106.6-50.8c15.6-1.1,31-0.2,45.9,5
	c9.7,3.4,17.8,8.9,23.2,17.9c5.6,9.5,4,19-4.7,25.9c-7.9,6.3-17,9.6-27.1,10.4c-33.4,2.6-61.4,16.4-83.5,41.5
	c-19.1,21.8-29.4,47.6-32.5,76.3c-4.1,37.4,6.7,71.1,24.8,103.1c33.2,59.1,83.5,93.6,150.3,104.4c33.4,5.4,66.7,4.2,100.1-0.6
	c20.8-2.9,41.2-7.9,61.7-12.5C525.1,528.1,526.2,528,528.5,527.6z"/>
<path fill="#7EA000" d="M31.9,366c-2.5-6-3.4-11.8-4.1-17.6c-1.8-14.9-3.1-30-2.5-45.1c1-24,4.1-47.6,10.9-70.7
	c4-13.5,8.9-26.6,15.2-39.2c8.6-17.3,19.1-33.4,31.6-48.2c18.2-21.4,39.8-38.6,63.7-53.2c25.3-15.4,52.7-25.5,81.8-31.4
	c22.6-4.6,45.5-5.7,68.4-4.5c28,1.5,55.1,7.9,80.8,19.3c17.1,7.6,33.1,17.2,47.4,29.1c18.7,15.5,34.4,33.7,47,54.6
	c9.8,16.3,17.6,33.4,22,51.9c3.3,13.7,5.1,27.6,4.4,41.6c-1.6,31.9-11.8,61.1-30.4,87.1c-7.2,10.1-16.3,18.5-28.7,22.4
	c-4.8,1.5-9.8,2-14.8,1.3c-8.4-1.2-14-8.2-15.4-17.1c-1.8-12,1.6-22.6,6.3-33.3c7.7-17.8,10.4-36.6,8.6-55.8
	c-2.3-25.1-11.5-47.7-27.3-67.5c-23.4-29.5-54-46.8-90.5-54c-17.4-3.5-35.2-4.1-52.8-3.2c-25.6,1.4-50.5,6.7-74.1,17.3
	c-18.5,8.3-35.1,19.3-50.2,32.6c-21.8,19.2-38.9,42.1-53.1,67.3c-13.5,24-23.8,49.4-32,75.6c-3.7,11.9-6.9,23.9-10.3,35.8
	C33.6,362.8,33.5,364.4,31.9,366z"/>
</svg>
