<?xml version="1.0" encoding="utf-8"?>
<!-- Generator: Adobe Illustrator 18.0.0, SVG Export Plug-In . SVG Version: 6.00 Build 0)  -->
<!DOCTYPE svg PUBLIC "-//W3C//DTD SVG 1.1//EN" "http://www.w3.org/Graphics/SVG/1.1/DTD/svg11.dtd">
<svg version="1.1" id="Capa_1" xmlns="http://www.w3.org/2000/svg" xmlns:xlink="http://www.w3.org/1999/xlink" x="0px" y="0px"
	 viewBox="0 0 100 100" enable-background="new 0 0 100 100" xml:space="preserve">
<path fill="#7EA32A" d="M72.9,1.7c0,0-8,7.7-16.6,10.8c-63.7,23-36.8,67.9-36,68.1c0,0,3.6-6.2,8.4-9.8
	c30.6-22.5,36.8-48.4,36.8-48.4S58.8,53.6,31.6,73c-6,4.3-10.1,14.8-11.8,25.4c0,0,4.3-1.7,6.1-2.2c0.7-4.7,2.2-9.1,4.7-13.1
	c38.1,4.5,50.5-26.1,52.2-36.8C86.6,20.9,72.9,1.7,72.9,1.7L72.9,1.7z M72.9,1.7"/>
</svg>
