<?xml version="1.0" encoding="utf-8"?>
<!-- Generator: Adobe Illustrator 18.0.0, SVG Export Plug-In . SVG Version: 6.00 Build 0)  -->
<!DOCTYPE svg PUBLIC "-//W3C//DTD SVG 1.1//EN" "http://www.w3.org/Graphics/SVG/1.1/DTD/svg11.dtd">
<svg version="1.1" id="Capa_1" xmlns="http://www.w3.org/2000/svg" xmlns:xlink="http://www.w3.org/1999/xlink" x="0px" y="0px"
	 viewBox="0 0 626 601.5" enable-background="new 0 0 626 601.5" xml:space="preserve">
<path fill="#7EA000" d="M0,122.6c2.8-3.1,2.8-7.2,4.1-10.9c13.2-37.2,59-54.6,93.5-35.3c33.9,19,44.6,62.8,23.1,94.5
	c-22.3,33-67.8,38.9-98,12.7C12.3,174.8,5.4,163.7,2,150.4c-0.4-1.6-0.1-3.7-2-4.7C0,138,0,130.3,0,122.6z"/>
<path fill="#7EA000" d="M626,39.6c-1.9,0.1-1.7,1.8-2.1,2.9c-7.1,17-24.9,24.7-41.4,18c-16.2-6.6-23.5-24.6-16.9-41.5
	c4.2-10.8,16.4-18.9,28.7-19c13.2-0.1,24.7,7.9,29.7,20.5c0.6,1.4,0.1,3.4,2.1,4.2C626,29.6,626,34.6,626,39.6z"/>
<path fill="#7EA000" d="M299,601.5C159.4,600,49.1,485,55.3,345.5c5.8-130.6,114.2-234.9,247.1-233.4
	c138.2,1.6,244.3,116.1,241.9,248.3C541.8,497.5,429.5,601.5,299,601.5z M299.5,557.6c110.6-0.7,200.5-89.4,200.9-200.7
	c0.4-110.1-89.5-201-200.4-201.1c-110.8-0.1-200.9,89.5-201,200.5C98.8,466.3,187.4,556.6,299.5,557.6z"/>
<path fill="#7EA000" d="M516.5,168.8c-29.2-1.9-48-26.1-47-51.4c1.3-31.8,27.6-49.9,52.5-48.6c29.7,1.6,48.9,26.2,47.7,51.8
	C568.4,151.4,542.6,170.8,516.5,168.8z"/>
<path fill="#7EA000" d="M164.9,43.4c0.1-13.5,11-24.2,24.6-24.1c13.8,0.1,24.6,11,24.5,24.8c-0.1,13.5-11.6,24.6-25.2,24.4
	C175.5,68.2,164.8,57,164.9,43.4z"/>
<path fill="#7EA000" d="M230.7,448.3c-16.9-0.7-33.5-2.3-49.2-9.2c-17.4-7.7-30.3-20.3-38.6-37.3c-14-28.8-14.7-59-5.4-89.1
	c9.4-30.6,31.1-49.1,62.4-56.2c21-4.8,42.2-4.7,62.9,0.7c34,8.8,55.1,31,61.8,65.7c4.8,24.7,4.1,49.5-5.4,73.2
	c-11,27.5-32.1,43.2-60.7,49.4C249.3,447.4,240,448,230.7,448.3z M269,351.5c0.1-13.5-0.7-25.7-7-36.5c-8.1-13.8-24.7-20.5-41-17.2
	c-15.1,3.2-26.5,16-28.9,32c-2.1,13.6-2.2,27-0.2,40.7c3.7,24.7,24.4,39.1,48.5,32.9c12.1-3.1,20.3-10.5,24.3-22.6
	C268,370.8,268.7,360.6,269,351.5z"/>
<path fill="#7EA000" d="M334.4,441.3c3.5-19.8,13.8-35,30.1-46.9c11.3-8.2,22.7-16.3,32.1-26.7c3.5-3.9,5.5-8.4,4.9-13.6
	c-0.8-7.1-5.7-11.4-13.4-12.3c-5.9-0.7-12.6,3.3-14.9,8.8c-0.1,0.3-0.2,0.6-0.3,0.9c-1.2,3-0.4,7.4-3.5,8.7
	c-2.6,1.1-6.2-0.2-9.3-0.4c-7-0.6-13.9-1.3-20.9-1.8c-2.6-0.2-3.1-0.9-2.5-3.7c2.4-12.8,6.9-24,19.3-30.4c5.9-3,12.2-4.3,18.6-5.2
	c10.3-1.4,20.7-0.6,30.8,1.1c31.4,5.2,37.9,36.6,24,57.3c-6.6,9.8-16,16.8-25.4,23.8c-6.1,4.5-12.6,8.7-16.6,15.5
	c-0.6,0.9-2.1,1.5-1.3,2.9c0.7,1.2,2.1,0.6,3.2,0.7c11.7,0,23.3,0.1,35,0c3.3-0.1,4.4,0.8,4.2,4.2c-0.3,4.8-0.1,9.7,0,14.5
	c0.1,2.3-0.7,3.3-3.1,3.2c-30-0.1-60-0.1-90-0.1C334.9,441.7,334.6,441.4,334.4,441.3z"/>
</svg>
