<?xml version="1.0" encoding="utf-8"?>
<!-- Generator: Adobe Illustrator 18.0.0, SVG Export Plug-In . SVG Version: 6.00 Build 0)  -->
<!DOCTYPE svg PUBLIC "-//W3C//DTD SVG 1.1//EN" "http://www.w3.org/Graphics/SVG/1.1/DTD/svg11.dtd">
<svg version="1.1" id="Capa_1" xmlns="http://www.w3.org/2000/svg" xmlns:xlink="http://www.w3.org/1999/xlink" x="0px" y="0px"
	 viewBox="0 0 626 601.5" enable-background="new 0 0 626 601.5" xml:space="preserve">
<g>
	<path fill="#7EA000" d="M509.6,87.7v24.7h-95.7V87.7H509.6z M469.5,141.6h-55.6v24.7h55.6V141.6z M413.9,220.1h95.7v-24.7h-95.7
		V220.1z M469.5,249.3h-55.6V274h55.6V249.3z M413.9,327.8h95.7v-24.7h-95.7V327.8z M428.8,468.6c0,69-56.1,125.1-125.1,125.1
		c-69,0-125.1-56.1-125.1-125.1c0-44.7,23.5-85.3,61.8-107.8V77.3c0-34.9,28.4-63.3,63.3-63.3c34.9,0,63.3,28.4,63.3,63.3v283.6
		C405.3,383.3,428.8,423.9,428.8,468.6L428.8,468.6z M404.1,468.6c0-37.9-21.1-72.2-55-89.4l-6.8-3.4V77.3
		c0-21.3-17.3-38.6-38.6-38.6c-21.3,0-38.6,17.3-38.6,38.6v298.5l-6.8,3.4c-33.9,17.2-55,51.5-55,89.4c0,55.3,45,100.4,100.4,100.4
		C359.1,569,404.1,524,404.1,468.6L404.1,468.6z M383.5,468.6c0,44-35.8,79.8-79.8,79.8c-44,0-79.8-35.8-79.8-79.8
		c0-36.1,24.4-67.7,59.2-77l4.6-1.2V238h31.9v152.4l4.6,1.2C359.2,400.9,383.5,432.6,383.5,468.6L383.5,468.6z M307.7,415.4
		c-1.9-8.5-10.4-14-19.1-12c-30.2,6.8-51.4,33.3-51.4,64.3c0,8.8,7.2,15.9,15.9,15.9c8.8,0,15.9-7.2,15.9-15.9
		c0-15.8,11.1-29.8,26.5-33.2C304.2,432.5,309.6,424,307.7,415.4L307.7,415.4z M307.7,415.4"/>
</g>
</svg>
